<svg width="24" height="24" viewBox="0 0 24 24" fill="none" xmlns="http://www.w3.org/2000/svg">
<g clip-path="url(#clip0_8727_4682)">
<path d="M12 0.583008C18.3053 0.583008 23.417 5.69475 23.417 12C23.417 18.3053 18.3053 23.417 12 23.417C5.69475 23.417 0.583008 18.3053 0.583008 12C0.583008 5.69475 5.69475 0.583008 12 0.583008Z" stroke="white" stroke-width="1.16667"/>
<line x1="21.6667" y1="18.7899" x2="2.16675" y2="18.7899" stroke="white" stroke-width="1.16667"/>
<line x1="21.6667" y1="21.0834" x2="2.16675" y2="21.0834" stroke="white" stroke-width="1.16667"/>
<path d="M14.7178 16.2538H2.24121L8.48047 8.7226L14.7178 16.2538Z" stroke="white" stroke-width="1.16667"/>
<path fill-rule="evenodd" clip-rule="evenodd" d="M1.00195 16.8H8.50195V7.80003L1.00195 16.8Z" fill="white"/>
<path d="M20.2546 18.7901H11.9119L16.0837 13.7833L20.2546 18.7901Z" stroke="white" stroke-width="1.16667"/>
<path fill-rule="evenodd" clip-rule="evenodd" d="M10.6667 19.3731H16.1667V12.8731L10.6667 19.3731Z" fill="white"/>
<path fill-rule="evenodd" clip-rule="evenodd" d="M16.0981 11.2363C17.755 11.2363 19.0981 9.89316 19.0981 8.23631C19.0981 6.57945 17.755 5.23631 16.0981 5.23631C14.4413 5.23631 13.0981 6.57945 13.0981 8.23631C13.0981 9.89316 14.4413 11.2363 16.0981 11.2363Z" fill="white"/>
<path fill-rule="evenodd" clip-rule="evenodd" d="M8.50195 6.43627C9.33038 6.43627 10.002 5.7647 10.002 4.93627C10.002 4.10784 9.33038 3.43627 8.50195 3.43627C7.67353 3.43627 7.00195 4.10784 7.00195 4.93627C7.00195 5.7647 7.67353 6.43627 8.50195 6.43627Z" fill="white"/>
</g>
<defs>
<clipPath id="clip0_8727_4682">
<rect width="24" height="24" rx="12" fill="white"/>
</clipPath>
</defs>
</svg>
