<svg width="24" height="24" viewBox="0 0 24 24" fill="none" xmlns="http://www.w3.org/2000/svg">
<path d="M2.59205 15.994V20.1137C2.59194 20.206 2.6093 20.2974 2.64314 20.3827C2.67698 20.468 2.72662 20.5456 2.78924 20.6109C2.85186 20.6762 2.92623 20.728 3.00808 20.7633C3.08994 20.7987 3.17769 20.8169 3.2663 20.8169H5.64314C5.77289 20.8169 5.90158 20.8411 6.02311 20.8885L11.2821 22.9349C11.4838 23.0133 11.6986 23.0485 11.9137 23.0382C12.1288 23.0279 12.3396 22.9724 12.5336 22.8751L19.9123 19.1697C20.2659 18.9922 20.54 18.6791 20.6773 18.2961C20.8145 17.913 20.8043 17.4894 20.6488 17.114V17.114C20.5003 16.7557 20.2301 16.4671 19.8899 16.3035C19.5498 16.1399 19.1637 16.1127 18.8055 16.2272L12.5683 18.2256L10.0541 15.7093C9.78666 15.4398 9.42931 15.2888 9.05723 15.2883H3.26306C3.17452 15.2887 3.08693 15.3073 3.00528 15.343C2.92364 15.3787 2.84955 15.4308 2.78724 15.4963C2.72493 15.5619 2.67562 15.6396 2.64213 15.7249C2.60864 15.8103 2.59162 15.9017 2.59205 15.994Z" stroke="white" stroke-width="1.5" stroke-miterlimit="10"/>
<path d="M8.45996 18.0698L10.5708 20.0909C10.8195 20.315 11.1391 20.4348 11.4678 20.4272C11.7964 20.4195 12.1106 20.285 12.3494 20.0497C12.4795 19.9211 12.5832 19.7664 12.6542 19.5949C12.7253 19.4234 12.7622 19.2387 12.7628 19.0519C12.7635 18.8651 12.7277 18.6802 12.6578 18.5082C12.5878 18.3362 12.4851 18.1808 12.3559 18.0513L10.0542 15.7093" stroke="white" stroke-width="1.5" stroke-miterlimit="10"/>
<path d="M17.5324 10.77V4.23001L12.0951 0.960007L6.6582 4.23001V10.77L12.0951 14.04L17.5324 10.77Z" stroke="white" stroke-width="1.5" stroke-miterlimit="10"/>
<path d="M6.6582 4.23007L12.0955 7.03622" stroke="white" stroke-miterlimit="10"/>
<path d="M17.5326 4.23012L12.0957 7.03627" stroke="white" stroke-miterlimit="10"/>
<path d="M12.0957 14.0396V7.03612" stroke="white" stroke-miterlimit="10"/>
</svg>
